<svg xmlns="http://www.w3.org/2000/svg" width="1508.024" height="517.286">
  <path d="m1192.831 343.368 2 1z" style="fill:#fff"/>
  <g style="fill:#fff;fill-opacity:1">
    <path d="m740.091 366.82-33.215 172.36c-1.045 5.424 2.585 9.82 8.108 9.82h125.265c5.523 0 7.761-3.877 5-8.66l-20.01-34.658c-2.761-4.783-9.477-8.66-15-8.66h-33.002c-5.522 0-9.16-4.398-8.122-9.823l23.008-120.377c1.037-5.424-2.6-9.822-8.123-9.822h-32.016c-5.523 0-10.848 4.396-11.893 9.82m126.546 22.427-18.854 97.955a26.82 26.82 80.448 0 0 3.11 18.48l20.01 34.658a17.32 17.32 30 0 0 15 8.66h85.392a12.11 12.11 140.45 0 0 11.89-9.82l28.87-149.933a8.258 8.258 50.45 0 0-8.11-9.82H878.528a12.11 12.11 140.448 0 0-11.89 9.82m53.988 42.16h21.396a8.27 8.27 50.41 0 1 8.123 9.821l-8.786 45.971a12.09 12.09 140.41 0 1-11.878 9.822h-21.408a8.268 8.268 50.415 0 1-8.12-9.821l8.794-45.972a12.094 12.094 140.415 0 1 11.879-9.822m131.482-42.159-28.893 149.934a8.257 8.257 50.454 0 0 8.107 9.819h125.264a12.09 12.09 140.405 0 0 11.875-9.823l6.174-32.333a8.27 8.27 50.405 0 0-8.125-9.823h-72.934a8.272 8.272 50.402 0 1-8.126-9.822l8.773-45.97a12.09 12.09 140.402 0 1 11.874-9.823h72.941a12.09 12.09 140.405 0 0 11.876-9.822l6.173-32.334a8.27 8.27 50.405 0 0-8.124-9.822H1064a12.11 12.11 140.454 0 0-11.892 9.82" style="fill:#fff;fill-opacity:1;stroke-width:5.33069;stroke-linejoin:round" transform="translate(-64.169 -256.632)"/>
    <path d="m1416.288 389.248-28.826 149.932a8.26 8.26 50.441 0 0 8.112 9.82h99.533a17.32 17.32 150 0 0 15-8.66l20.01-34.658a5.774 5.774 60 0 0-5-8.66h-67.365a7.248 7.248 37.834 0 1-8.78-6.819h43.032a17.32 17.32 150 0 0 15-8.66l20.01-34.658a5.774 5.774 60 0 0-5-8.66h-53.04a7.172 7.172 38.09 0 1-8.699-6.819h76.135a17.32 17.32 150 0 0 15-8.66l20.01-34.658a5.774 5.774 60 0 0-5-8.66h-138.244a12.106 12.106 140.441 0 0-11.888 9.82m-178.971-.001-28.893 149.934a8.257 8.257 50.454 0 0 8.107 9.819h32.334a12.09 12.09 140.402 0 0 11.875-9.823l4.698-24.622a4.044 4.044 168.783 0 1 7.356-1.459l18.047 27.54a18.51 18.51 28.381 0 0 15.481 8.364h41.239a5.434 5.434 118.52 0 0 4.559-8.39l-41.906-64.624a12.23 12.23 96.314 0 1 1.703-15.388l75.713-74.172a4.082 4.082 67.795 0 0-2.857-6.998h-53.25a24.67 24.67 157.932 0 0-17.177 6.963l-22.827 22.15a3.159 3.159 28.334 0 1-5.303-2.86l3.136-16.43a8.272 8.272 50.402 0 0-8.125-9.823h-32.018a12.11 12.11 140.454 0 0-11.892 9.82" style="fill:#fff;fill-opacity:1;stroke-width:3.77953;stroke-linejoin:round" transform="translate(-64.169 -256.632)"/>
  </g>
  <g style="fill:#fff;fill-opacity:1">
    <path d="m917.512 584.633-26.548 70.797a3.465 3.465 55.278 0 0 3.245 4.681h10.039a7.215 7.215 145.277 0 0 6.755-4.681l16.528-44.08a1.875 1.875 179.998 0 1 3.512 0l9.015 24.039a3.465 3.465 124.72 0 1-3.244 4.681h-5.285a7.13 7.13 144.959 0 0-6.703 4.701l-3.853 10.634a14.5 14.5 109.902 0 0-1.704 4.704l45.074-.058a3.47 3.47 124.684 0 0 3.245-4.688l-3.98-10.61-22.546-60.12a7.215 7.215 34.721 0 0-6.756-4.682h-10.039a7.215 7.215 145.278 0 0-6.755 4.682" style="fill:#fff;fill-opacity:1;stroke-width:2.55456;stroke-linejoin:round" transform="matrix(1 0 -.3111 1 142.46 -256.632)"/>
    <path d="M731.514 584.951v70.16a5 5 45 0 0 5 5h70.16a4.99 4.99 0 0 0 4.99-5l-.067-36.76a5.01 5.01 0 0 0-5.009-5h-30.033a5 5 0 0 0-5 5l-.001 10.04a5 5 0 0 0 4.999 5h10.039a5 5 45 0 1 5 5 3.73 3.73 161.406 0 1-5 1.681h-30.041a5 5 45 0 1-5-5V604.99a5 5 135 0 1 5-5h50.121a5 5 0 0 0 5-5l.001-10.039a5 5 0 0 0-4.999-5h-70.16a5 5 135 0 0-5 5" style="fill:#fff;fill-opacity:1;stroke-width:2.94991;stroke-linejoin:round" transform="matrix(1 0 -.3111 1 142.46 -256.632)"/>
    <path d="M1046.878 584.951v70.156a5 5 45 0 0 5 5h10.04a5 5 135 0 0 5-5v-15.433a.947.947 169.272 0 1 1.828-.347l5.553 14.129a7.34 7.34 34.272 0 0 6.83 4.653h11.655a7.34 7.34 145.728 0 0 6.83-4.653l5.552-14.129a.947.947 10.728 0 1 1.83.347v15.37a5.017 5.017 45.095 0 0 5 5.017l10.038.034a4.983 4.983 135.095 0 0 5-4.984v-70.16a5 5 45 0 0-5-5h-10.039a7.34 7.34 145.728 0 0-6.829 4.654l-16.38 41.679a1.965 1.965 0 0 1-3.659 0l-16.38-41.68a7.34 7.34 34.272 0 0-6.83-4.653h-10.039a5 5 135 0 0-5 5" style="fill:#fff;fill-opacity:1;stroke-width:2.94976;stroke-linejoin:round" transform="matrix(1 0 -.3111 1 142.46 -256.632)"/>
    <path d="M1204.57 584.951v70.156a5 5 45 0 0 5 5h70.155a5 5 135 0 0 5-5v-10.039a5 5 45 0 0-5-5h-50.117a5 5 45 0 1-5-5v-.02a5 5 135 0 1 5-5h30.078a5 5 135 0 0 5-5V615.01a5 5 45 0 0-5-5h-30.078a5 5 45 0 1-5-5v-.02a5 5 135 0 1 5-5h50.117a5 5 135 0 0 5-5v-10.039a5 5 45 0 0-5-5h-70.156a5 5 135 0 0-5 5" style="fill:#fff;fill-opacity:1;stroke-width:3.77953;stroke-linejoin:round" transform="matrix(1 0 -.3111 1 142.46 -256.632)"/>
    <path d="M1362.26 584.951v40.098a5 5 45 0 0 5 5h50.117a5 5 45 0 1 5 5v.02a5 5 135 0 1-5 5h-50.117a5 5 135 0 0-5 5v10.038a5 5 45 0 0 5 5h70.157a5 5 135 0 0 5-5V615.01a5 5 45 0 0-5-5h-50.118a5 5 45 0 1-5-5v-.02a5 5 135 0 1 5-5h50.117a5 5 135 0 0 5-5v-10.039a5 5 45 0 0-5-5h-70.156a5 5 135 0 0-5 5" style="fill:#fff;fill-opacity:1;stroke-width:3.45022;stroke-linejoin:round" transform="matrix(1 0 -.3111 1 142.46 -256.632)"/>
  </g>
  <g style="fill:#fff;fill-opacity:1">
    <path d="M239.174 240.408v200.9a17.32 17.32 60 0 0 8.66 15l6.506 3.757a17.32 17.32 60 0 1 8.66 15v12.119a5.752 5.752 150.093 0 1-8.644 4.971l-50.952-29.639a5.752 5.752 150.093 0 0-8.644 4.972v12.121a17.39 17.39 60.096 0 0 8.643 15.03l50.953 29.645A17.39 17.39 60.096 0 1 263 539.313v12.119a5.774 5.774 150 0 1-8.66 5l-6.506-3.756a5.774 5.774 150 0 0-8.66 5v70.365a17.32 17.32 60 0 0 8.66 15l184.564 106.557a17.32 17.32 180 0 0 17.32 0l184.448-106.49a17.32 17.32 120 0 0 8.66-15v-58.815a5.774 5.774 30 0 0-8.66-5l-7.715 4.453a4.449 4.449 36.019 0 1-6.575-4.78l.692-3.247a22.48 22.48 126.018 0 1 10.746-14.78l21.489-12.406a17.32 17.32 120 0 0 8.66-15v-16.246a7.085 7.085 35.317 0 0-9.434-6.684 7 7 36.322 0 1-9.203-6.765v-73.711a5.774 5.774 30 0 0-8.66-5L500.16 487.494a17.32 17.32 120 0 0-8.66 15v96.356a5.774 5.774 30 0 0 8.66 5l33.121-19.122a17.32 17.32 120 0 0 8.66-15v-38.11a17.32 17.32 120 0 1 8.66-15l33.122-19.124a5.773 5.773 30 0 1 8.66 5v96.49a17.32 17.32 120 0 1-8.66 15l-134.004 77.37a17.32 17.32 180 0 1-17.32 0l-134.122-77.436a17.32 17.32 60 0 1-8.66-15V327.73a5.775 5.775 149.995 0 1 8.661-5.001l134.12 77.4a17.32 17.32 179.995 0 0 17.32-.002l134.005-77.368a5.774 5.774 29.999 0 1 8.66 5l.001 38.243a5.774 5.774 30 0 0 8.66 5l33.122-19.122a17.32 17.32 120 0 0 8.66-15v-96.345a5.777 5.777 30.016 0 0-8.663-5.005L449.722 341.882a17.34 17.34.006 0 1-17.325-.002L247.836 235.405a5.776 5.776 149.99 0 0-8.662 5.003" style="fill:#fff;fill-opacity:1" transform="translate(-144.169 -234.632)"/>
    <path d="M340 389.303V544.02a17.32 17.32 60 0 0 8.66 15l83.68 48.311a5.774 5.774 150 0 0 8.66-5v-36.554a17.32 17.32 60 0 0-8.66-15l-33.238-19.19a17.3 17.3 60.028 0 1-8.65-15l.096-98.133a17.29 17.29 60.012 0 0-8.653-14.995l-33.232-19.161a5.777 5.777 149.984 0 0-8.663 5.005" style="fill:#fff;fill-opacity:1;stroke-width:3.77953;stroke-linejoin:round" transform="translate(-144.169 -234.632)"/>
  </g>
  <path d="M184.655 474.077v-12.119a17.32 17.32 60 0 0-8.66-15l-23.166-13.375a5.773 5.773 150 0 0-8.66 5v12.122a17.32 17.32 59.999 0 0 8.66 15l23.166 13.373a5.774 5.774 149.999 0 0 8.66-5m40.713 87.746v-12.12a17.32 17.32 60 0 0-8.66-14.999l-23.06-13.313a5.774 5.774 150 0 0-8.66 5v12.122a17.32 17.32 59.998 0 0 8.66 15l23.06 13.31a5.774 5.774 149.998 0 0 8.66-5m3.647-126.381v-12.119a17.32 17.32 60.002 0 0-8.66-15l-23.038-13.303a5.773 5.773 150.002 0 0-8.66 5v12.121a17.32 17.32 60 0 0 8.66 15l23.037 13.301a5.773 5.773 150 0 0 8.66-5" style="fill:#fff;fill-opacity:1;stroke-width:3.77953;stroke-linejoin:round" transform="translate(-144.169 -234.632)"/>
  <path d="m590.085 460.32 33.923-19.94a5.722 5.722 29.777 0 1 8.621 4.933v8.9a17.48 17.48 119.777 0 1-8.621 15.068l-33.923 19.94a5.722 5.722 29.777 0 1-8.621-4.933v-8.9a17.48 17.48 119.777 0 1 8.62-15.068m.04 105.213 37.397-21.591a5.774 5.774 30 0 1 8.66 5v20.568a17.32 17.32 120 0 1-8.66 15l-37.397 21.591a5.774 5.774 30 0 1-8.66-5v-20.568a17.32 17.32 120 0 1 8.66-15m18.638-67.006 22.77-13.146a5.774 5.774 30 0 1 8.66 5v16.245a17.32 17.32 120 0 1-8.66 15l-22.77 13.146a5.774 5.774 30 0 1-8.66-5v-16.245a17.32 17.32 120 0 1 8.66-15" style="fill:#fff;fill-opacity:1;stroke-width:3.77953;stroke-linejoin:round" transform="translate(-64.169 -256.632)"/>
</svg>