<svg xmlns="http://www.w3.org/2000/svg" xmlns:xlink="http://www.w3.org/1999/xlink" viewBox="0 0 1508.0239 517.28577">
  <defs>
    <linearGradient id="a">
      <stop offset="0" stop-color="#e85a8f"/>
      <stop offset="1" stop-color="#f7941d"/>
    </linearGradient>
    <linearGradient xlink:href="#a" id="b" x1="114.75977" x2="581.46289" y1="515.27533" y2="515.27533" gradientUnits="userSpaceOnUse"/>
    <linearGradient xlink:href="#a" id="c" x1="114.75977" x2="581.46289" y1="515.27533" y2="515.27533" gradientUnits="userSpaceOnUse"/>
    <linearGradient xlink:href="#a" id="d" x1="114.75977" x2="581.46289" y1="515.27533" y2="515.27533" gradientUnits="userSpaceOnUse"/>
  </defs>
  <g fill="url(#b)" transform="translate(-64.16897 -256.63248)">
    <path fill="url(#c)" d="M239.17383 240.4082v200.90039a17.3204 17.3204 59.99983 0 0 8.66028 14.99995l6.50561 3.75596A17.3204 17.3204 59.99983 0 1 263 475.06445v12.11914a5.75182 5.75182 150.09327 0 1-8.64393 4.97183l-50.95237-29.63897a5.75182 5.75182 150.09327 0 0-8.64393 4.97183v12.1211a17.3875 17.3875 60.09572 0 0 8.6435 15.02891l50.95323 29.6453A17.3875 17.3875 60.09572 0 1 263 539.3125v12.11914a5.77354 5.77354 149.99983 0 1-8.66028 5.00005l-6.50561-3.75596a5.77354 5.77354 149.99983 0 0-8.66028 5.00005v70.36524a17.3204 17.3204 59.99983 0 0 8.66028 14.99995l184.5642 106.55674a17.3207 17.3207 179.99987 0 0 17.32054-.00004l184.44706-106.49026a17.3205 17.3205 120.00003 0 0 8.66026-14.99999v-58.81445a5.7737 5.7737 30.0008 0 0-8.66039-5.00024l-7.71437 4.4536a4.44875 4.44875 36.01851 0 1-6.57523-4.78043l.69226-3.24691a22.4785 22.4785 126.01824 0 1 10.74551-14.78003l21.48859-12.40592a17.3201 17.3201 120.00053 0 0 8.66035-14.99984v-16.24609a7.08483 7.08483 35.31693 0 0-9.43419-6.68396 6.99892 6.99892 36.32206 0 1-9.20253-6.76539v-73.71081a5.77354 5.77354 30.00014 0 0-8.66028-5.00004l-134.00561 77.36727A17.3204 17.3204 120.00014 0 0 491.5 502.49414v96.35547a5.77363 5.77363 30.00054 0 0 8.66035 5.00016l33.12071-19.12141a17.3201 17.3201 120.00054 0 0 8.66035-14.99984v-38.11133a17.3207 17.3207 119.9997 0 1 8.6602-15.00009l33.121-19.12287a5.77343 5.77343 29.9997 0 1 8.6602 4.99991v96.49024a17.3207 17.3207 119.99971 0 1-8.6602 15.00009l-134.00382 77.36896a17.3202 17.3202 179.99982 0 1-17.32043.00005l-134.12094-77.43547a17.3206 17.3206 60.00012 0 1-8.66023-15.00004v-271.1875a5.77477 5.77477 149.99457 0 1 8.6612-5.00164l134.119 77.39976a17.3243 17.3243 179.99456 0 0 17.32145-.002l134.00372-77.36718a5.77373 5.77373 29.999 0 1 8.66059 5l.001 38.24218a5.77386 5.77386 29.99956 0 0 8.66069 5.00016l33.1207-19.12141a17.3201 17.3201 120.00054 0 0 8.66035-14.99984v-96.3457a5.7772 5.7772 30.01585 0 0-8.66302-5.00479L449.72161 341.88174a17.3382 17.3382.00633 0 1-17.32494-.002L247.83575 235.40532a5.77572 5.77572 149.99048 0 0-8.66192 5.00288" transform="translate(-80 22)"/>
    <path fill="url(#d)" d="m340.00015 389.30284-.00013 154.71764a17.3202 17.3202 59.99964 0 0 8.66031 14.99988l83.67936 48.31079a5.7736 5.7736 149.99961 0 0 8.66032-5.00012L441 565.77734a17.3203 17.3203 59.99976 0 0-8.6603-14.99993l-33.23799-19.18959a17.3006 17.3006 60.028 0 1-8.65044-14.99993l.0967-98.13411a17.2894 17.2894 60.01185 0 0-8.65325-14.99504l-33.23147-19.16086a5.77732 5.77732 149.98363 0 0-8.66312 5.00496z" transform="translate(-80 22)"/>
  </g>
  <path fill="#e85a8f" d="M40.48621 239.44485v-12.11914a17.3207 17.3207 0 0 0-8.66022-15.00007L8.66022 198.95065A5.77345 5.77345 0 0 0 0 203.95058v12.12181a17.3197 17.3197 0 0 0 8.66046 14.99964l23.16529 13.37318a5.77378 5.77378 0 0 0 8.66046-5.00036m40.71249 87.74671v-12.11914a17.3204 17.3204 0 0 0-8.66028-14.99995l-23.05943-13.31318a5.77354 5.77354 0 0 0-8.66028 5.00005v12.12181a17.3194 17.3194 0 0 0 8.66053 14.99952l23.05893 13.31137a5.77387 5.77387 0 0 0 8.66053-5.00048m3.64701-126.38089v-12.11914a17.3216 17.3216 0 0 0-8.65999-15.00047l-23.03805-13.30267a5.77314 5.77314 0 0 0-8.65999 4.99953v12.12181a17.3206 17.3206 0 0 0 8.66023 15.00004l23.03757 13.30086a5.77348 5.77348 0 0 0 8.66023-4.99996"/>
  <path fill="#fff" d="m675.92229 110.18685-33.21547 172.36134c-1.04507 5.42306 2.58488 9.81933 8.10773 9.81933H776.0798c5.52285 0 7.76142-3.87733 5-8.66025l-20.00981-34.65801c-2.76142-4.78292-9.47715-8.66025-15-8.66025h-33.00157c-5.52285 0-9.15949-4.39755-8.12266-9.8222l23.00795-120.37709c1.03683-5.42465-2.59981-9.8222-8.12266-9.8222h-32.01649c-5.52285 0-10.8472 4.39627-11.89227 9.81933M802.46824 132.615l-18.8545 97.95425a26.821 26.821 0 0 0 3.10986 18.48001l20.00978 34.658a17.3205 17.3205 0 0 0 14.99999 8.66026h85.39258a12.1092 12.1092 0 0 0 11.89075-9.81963l28.86933-149.93301a8.2582 8.2582 0 0 0-8.1093-9.81963H814.35837a12.1084 12.1084 0 0 0-11.89013 9.81975m53.98779 42.15877h21.39648a8.26972 8.26972 0 0 1 8.12269 9.8222l-8.78639 45.97083a12.0923 12.0923 0 0 1-11.87731 9.8222h-21.4082a8.26827 8.26827 0 0 1-8.12099-9.82188l8.79471-45.97147a12.0944 12.0944 0 0 1 11.87901-9.82188m131.4827-42.15918-28.8931 149.93359a8.25692 8.25692 0 0 0 8.1077 9.81934h125.2636a12.08995 12.08995 0 0 0 11.8754-9.82256l6.1735-32.3334a8.27133 8.27133 0 0 0-8.1246-9.82256h-72.9343a8.27213 8.27213 0 0 1-8.1255-9.82274l8.7725-45.96975a12.0888 12.0888 0 0 1 11.8745-9.82274h72.9409a12.08995 12.08995 0 0 0 11.8754-9.82256l6.1735-32.3334a8.27133 8.27133 0 0 0-8.1246-9.82256h-124.9626a12.11105 12.11105 0 0 0-11.8923 9.81934m364.1801.00082-28.8256 149.93195a8.26056 8.26056 0 0 0 8.112 9.82016h99.5332a17.3205 17.3205 0 0 0 15-8.66025l20.0098-34.65802a5.7735 5.7735 0 0 0-5-8.66025h-67.3652a7.2475 7.2475 0 0 1-8.7793-6.81836h43.0312a17.3205 17.3205 0 0 0 15-8.66025l20.0098-34.65801a5.7735 5.7735 0 0 0-5-8.66025h-53.0391a7.17236 7.17236 0 0 1-8.6992-6.81836h76.1342a17.3205 17.3205 0 0 0 15-8.66025l20.0098-34.65802a5.7735 5.7735 0 0 0-5-8.66025h-138.2436a12.1057 12.1057 0 0 0-11.888 9.82016m-178.9711-.00082-28.8932 149.93359a8.25692 8.25692 0 0 0 8.1077 9.81934h32.334a12.0887 12.0887 0 0 0 11.8744-9.82276l4.6985-24.62206a4.04447 4.04447 0 0 1 7.3556-1.45875l18.0474 27.53956a18.5093 18.5093 0 0 0 15.4812 8.36401h41.2382a5.4339 5.4339 0 0 0 4.5592-8.39035l-41.9055-64.6236a12.2283 12.2283 0 0 1 1.7026-15.38834l75.7132-74.17199a4.08203 4.08203 0 0 0-2.8566-6.99799h-53.25a24.667 24.667 0 0 0-17.1769 6.96358l-22.8278 22.14902a3.15875 3.15875 0 0 1-5.3023-2.85915l3.1356-16.43072a8.27207 8.27207 0 0 0-8.1254-9.82273h-32.0176a12.11106 12.11106 0 0 0-11.8923 9.81934M878.0934 328.00036l-48.5724 70.79682a2.96774 4.04572 49.42075 0 0 1.78799 4.68167h10.03906a6.17921 8.4237 49.42075 0 0 8.21193-4.68171l30.24142-44.07994a1.6059 2.1892 49.42075 0 1 3.5113-.00013l1.53716 24.03918a2.96757 4.04549 49.42075 0 1-4.70064 4.68158h-5.28516a6.10659 8.3247 49.42075 0 0-8.16583 4.7009l-7.16104 10.63336a12.38978 16.89015 49.42075 0 0-3.16708 4.7049l45.09229-.0581a2.97171 4.05114 49.42075 0 0 4.70273-4.68805l-.6782-10.60943-3.8432-60.1211a8.4243 6.17964-40.57925 0 0-5.29926-4.68162l-10.03906-.00003a6.17939 8.42394 49.42075 0 0-8.212 4.68166zm-186.0971.31833-21.82685 70.16022a4.28238 5.83788 49.42075 0 0 3.4445 5h70.16022c2.76142 0 5.6923-2.23857 6.54631-4.99999l11.36859-36.76015c.85407-2.76142-.69227-4.99999-3.45369-4.99999h-30.03307c-2.76142 0-5.69664 2.23858-6.55595 5-1.04133 3.34633-2.08264 6.69267-3.12404 10.039-.85938 2.76142.68244 5 3.44386 5h10.039a4.28238 5.83788 49.42075 0 1 3.4445 5 3.19487 4.35535 49.42075 0 1-5.52331 1.68213h-30.041a4.28238 5.83788 49.42075 0 1-3.4445-5l9.35858-30.08222a4.28238 5.83788 49.42075 0 1 6.5555-5h50.121c2.76143 0 5.69665-2.23858 6.55596-5 1.04133-3.34633 2.08264-6.69267 3.12404-10.039.85938-2.76142-.68244-5-3.44386-5h-70.16026a4.28238 5.83788 49.42075 0 0-6.5555 5zm315.36452 0-21.8256 70.15625a4.28238 5.83788 49.42075 0 0 3.4445 5h10.0391a4.28238 5.83788 49.42075 0 0 6.5555-5l4.80138-15.43359a.81134 1.10604 49.42075 0 1 1.9368-.34652l1.1575 14.12859a8.56709 6.28439-40.57925 0 0 5.3813 4.65348h11.6563a6.28439 8.56709 49.42075 0 0 8.2767-4.65348l9.9483-14.12859a1.10604.81134-40.57925 0 1 1.7212.34652l-4.78194 15.37109a4.2966 5.85726 49.42075 0 0 3.43934 5.01657l10.02874.0333a4.26821 5.81857 49.42075 0 0 6.55035-4.98343l21.82682-70.16016a4.28238 5.83788 49.42075 0 0-3.4445-5h-10.0391a6.28439 8.56709 49.42075 0 0-8.2767 4.65349l-29.34754 41.67935a2.29445 1.6831-40.57925 0 1-3.6579 0l-3.41476-41.67935a8.56697 6.2843-40.57925 0 0-5.3812-4.65349l-10.0391.00001a4.28238 5.83788 49.42075 0 0-6.5555 5zm157.691 0-21.8256 70.15625a4.28238 5.83788 49.42075 0 0 3.4445 5h70.1562a4.28238 5.83788 49.42075 0 0 6.5555-5l3.12314-10.03906a4.28238 5.83788 49.42075 0 0-3.4445-5h-50.1172a4.28238 5.83788 49.42075 0 1-3.4445-5l.00607-.0195a4.28238 5.83788 49.42075 0 1 6.5555-5h30.0781a4.28238 5.83788 49.42075 0 0 6.5555-5l3.12315-10.03906a4.28238 5.83788 49.42075 0 0-3.4445-5h-30.0781a4.28238 5.83788 49.42075 0 1-3.4445-5l.00607-.0195a4.28238 5.83788 49.42075 0 1 6.5555-5h50.1172a4.28238 5.83788 49.42075 0 0 6.5555-5l3.12315-10.03906a4.28238 5.83788 49.42075 0 0-3.4445-5h-70.1562a4.28238 5.83788 49.42075 0 0-6.5555 5zm157.691 0-12.47438 40.09766a4.28238 5.83788 49.42075 0 0 3.4445 5h50.1172a4.28238 5.83788 49.42075 0 1 3.4445 5l-.00607.0195a4.28238 5.83788 49.42075 0 1-6.5555 5h-50.1172a4.28238 5.83788 49.42075 0 0-6.5555 5l-3.12315 10.03906a4.28238 5.83788 49.42075 0 0 3.4445 5h70.1563a4.28238 5.83788 49.42075 0 0 6.5555-5l12.47438-40.09765a4.28238 5.83788 49.42075 0 0-3.4445-5h-50.1172a4.28238 5.83788 49.42075 0 1-3.4445-5l.00607-.0195a4.28238 5.83788 49.42075 0 1 6.5555-5h50.1172a4.28238 5.83788 49.42075 0 0 6.5555-5l3.12315-10.03906a4.28238 5.83788 49.42075 0 0-3.4445-5h-70.1563a4.28238 5.83788 49.42075 0 0-6.5555 5z"/>
  <path fill="#f7941d" d="m525.91582 203.68771 33.92321-19.93947a5.7217 5.7217 0 0 1 8.62105 4.9327v8.90021a17.4774 17.4774 0 0 1-8.62105 15.0673l-33.92321 19.93948a5.7217 5.7217 0 0 1-8.62105-4.9327v-8.90022a17.4773 17.4773 0 0 1 8.62105-15.0673m.0392 105.21266 37.39723-21.59129a5.7735 5.7735 0 0 1 8.66025 5v20.56852a17.3205 17.3205 0 0 1-8.66025 15l-37.39723 21.5913a5.7735 5.7735 0 0 1-8.66025-5v-20.56853a17.3205 17.3205 0 0 1 8.66025-15m18.6384-67.00603 22.76918-13.14579a5.7735 5.7735 0 0 1 8.66025 5v16.24514a17.3205 17.3205 0 0 1-8.66025 15l-22.76918 13.1458a5.7735 5.7735 0 0 1-8.66025-5v-16.24515a17.3205 17.3205 0 0 1 8.66025-15"/>
</svg>
